<?xml version="1.0" encoding="UTF-8" standalone="no"?>
<!DOCTYPE svg PUBLIC "-//W3C//DTD SVG 1.1//EN" "http://www.w3.org/Graphics/SVG/1.1/DTD/svg11.dtd">
<!-- Generated by graphviz version 2.40.1 (20161225.0304)
 -->
<!-- Title: %0 Pages: 1 -->
<svg width="105pt" height="332pt" viewBox="0.00 0.00 105.16 332.00" xmlns="http://www.w3.org/2000/svg" xmlns:xlink="http://www.w3.org/1999/xlink">
<g id="graph0" class="graph" transform="scale(1 1) rotate(0) translate(4 328)">
<title>%0</title>
<polygon fill="#ffffff" stroke="transparent" points="-4,4 -4,-328 101.1577,-328 101.1577,4 -4,4"/>
<!-- Plain -->
<g id="node1" class="node">
<title>Plain</title>
<ellipse fill="none" stroke="#000000" cx="48.5788" cy="-306" rx="27" ry="18"/>
</g>
<!-- Mon -->
<g id="node2" class="node">
<title>Mon</title>
<ellipse fill="none" stroke="#000000" cx="48.5788" cy="-234" rx="29.0567" ry="18"/>
<text text-anchor="middle" x="48.5788" y="-229.8" font-family="Times,serif" font-size="14.00" fill="#000000">Mon</text>
</g>
<!-- Mon&#45;&gt;Plain -->
<g id="edge1" class="edge">
<title>Mon-&gt;Plain</title>
<path fill="none" stroke="#000000" d="M48.5788,-252.1686C48.5788,-259.869 48.5788,-269.0257 48.5788,-277.5834"/>
<polygon fill="#000000" stroke="#000000" points="45.0789,-277.5867 48.5788,-287.5867 52.0789,-277.5868 45.0789,-277.5867"/>
</g>
<!-- Sym -->
<g id="node3" class="node">
<title>Sym</title>
<ellipse fill="none" stroke="#000000" cx="48.5788" cy="-162" rx="28.9929" ry="18"/>
<text text-anchor="middle" x="48.5788" y="-157.8" font-family="Times,serif" font-size="14.00" fill="#000000">Sym</text>
</g>
<!-- Sym&#45;&gt;Mon -->
<g id="edge2" class="edge">
<title>Sym-&gt;Mon</title>
<path fill="none" stroke="#000000" d="M48.5788,-180.1686C48.5788,-187.869 48.5788,-197.0257 48.5788,-205.5834"/>
<polygon fill="#000000" stroke="#000000" points="45.0789,-205.5867 48.5788,-215.5867 52.0789,-205.5868 45.0789,-205.5867"/>
</g>
<!-- QMarkov -->
<g id="node4" class="node">
<title>QMarkov</title>
<ellipse fill="none" stroke="#000000" cx="48.5788" cy="-90" rx="48.6578" ry="18"/>
<text text-anchor="middle" x="48.5788" y="-85.8" font-family="Times,serif" font-size="14.00" fill="#000000">QMarkov</text>
</g>
<!-- QMarkov&#45;&gt;Sym -->
<g id="edge3" class="edge">
<title>QMarkov-&gt;Sym</title>
<path fill="none" stroke="#000000" d="M48.5788,-108.1686C48.5788,-115.869 48.5788,-125.0257 48.5788,-133.5834"/>
<polygon fill="#000000" stroke="#000000" points="45.0789,-133.5867 48.5788,-143.5867 52.0789,-133.5868 45.0789,-133.5867"/>
</g>
<!-- Markov -->
<g id="node5" class="node">
<title>Markov</title>
<ellipse fill="none" stroke="#000000" cx="48.5788" cy="-18" rx="41.7153" ry="18"/>
<text text-anchor="middle" x="48.5788" y="-13.8" font-family="Times,serif" font-size="14.00" fill="#000000">Markov</text>
</g>
<!-- Markov&#45;&gt;QMarkov -->
<g id="edge4" class="edge">
<title>Markov-&gt;QMarkov</title>
<path fill="none" stroke="#000000" stroke-dasharray="5,2" d="M48.5788,-36.1686C48.5788,-43.869 48.5788,-53.0257 48.5788,-61.5834"/>
<polygon fill="#000000" stroke="#000000" points="45.0789,-61.5867 48.5788,-71.5867 52.0789,-61.5868 45.0789,-61.5867"/>
</g>
</g>
</svg>